<?xml version="1.0" encoding="UTF-8" standalone="no"?>
<!-- Created with Inkscape (http://www.inkscape.org/) -->

<svg
   width="64"
   height="64"
   viewBox="0 0 16.933333 16.933333"
   version="1.1"
   id="svg5"
   inkscape:version="1.1.2 (0a00cf5339, 2022-02-04, custom)"
   sodipodi:docname="icons.svg"
   inkscape:export-filename="/home/torben/Code/wallhaven-collection-downloader/src/main/resources/success.png"
   inkscape:export-xdpi="192"
   inkscape:export-ydpi="192"
   xmlns:inkscape="http://www.inkscape.org/namespaces/inkscape"
   xmlns:sodipodi="http://sodipodi.sourceforge.net/DTD/sodipodi-0.dtd"
   xmlns:xlink="http://www.w3.org/1999/xlink"
   xmlns="http://www.w3.org/2000/svg"
   xmlns:svg="http://www.w3.org/2000/svg">
  <sodipodi:namedview
     id="namedview7"
     pagecolor="#505050"
     bordercolor="#eeeeee"
     borderopacity="1"
     inkscape:pageshadow="0"
     inkscape:pageopacity="0"
     inkscape:pagecheckerboard="0"
     inkscape:document-units="mm"
     showgrid="false"
     units="px"
     width="64px"
     inkscape:lockguides="false"
     inkscape:zoom="20.496745"
     inkscape:cx="57.692087"
     inkscape:cy="31.907505"
     inkscape:window-width="3840"
     inkscape:window-height="2091"
     inkscape:window-x="0"
     inkscape:window-y="0"
     inkscape:window-maximized="1"
     inkscape:current-layer="layer7" />
  <defs
     id="defs2">
    <linearGradient
       inkscape:collect="always"
       id="linearGradient46063">
      <stop
         style="stop-color:#91ff47;stop-opacity:1"
         offset="0"
         id="stop46059" />
      <stop
         style="stop-color:#47ff68;stop-opacity:1"
         offset="1"
         id="stop46061" />
    </linearGradient>
    <linearGradient
       inkscape:collect="always"
       id="linearGradient33785">
      <stop
         style="stop-color:#4799ff;stop-opacity:1"
         offset="0"
         id="stop33781" />
      <stop
         style="stop-color:#47f7ff;stop-opacity:1"
         offset="1"
         id="stop33783" />
    </linearGradient>
    <linearGradient
       inkscape:collect="always"
       id="linearGradient24395">
      <stop
         style="stop-color:#ff4747;stop-opacity:1"
         offset="0"
         id="stop24391" />
      <stop
         style="stop-color:#ff7847;stop-opacity:1"
         offset="1"
         id="stop24393" />
    </linearGradient>
    <linearGradient
       inkscape:collect="always"
       id="linearGradient16253">
      <stop
         style="stop-color:#91ff47;stop-opacity:1"
         offset="0"
         id="stop16249" />
      <stop
         style="stop-color:#47ff68;stop-opacity:1"
         offset="1"
         id="stop16251" />
    </linearGradient>
    <linearGradient
       inkscape:collect="always"
       id="linearGradient9035">
      <stop
         style="stop-color:#808080;stop-opacity:1"
         offset="0"
         id="stop9031" />
      <stop
         style="stop-color:#b3b3b3;stop-opacity:1"
         offset="1"
         id="stop9033" />
    </linearGradient>
    <linearGradient
       inkscape:collect="always"
       xlink:href="#linearGradient9035"
       id="linearGradient9037"
       x1="0.48654908"
       y1="42.73983"
       x2="63.836926"
       y2="39.708858"
       gradientUnits="userSpaceOnUse" />
    <linearGradient
       inkscape:collect="always"
       xlink:href="#linearGradient16253"
       id="linearGradient16255"
       x1="1.0952579"
       y1="39.223454"
       x2="61.699203"
       y2="22.280025"
       gradientUnits="userSpaceOnUse" />
    <linearGradient
       inkscape:collect="always"
       xlink:href="#linearGradient24395"
       id="linearGradient24397"
       x1="4.3371978"
       y1="47.073975"
       x2="58.968586"
       y2="14.084554"
       gradientUnits="userSpaceOnUse" />
    <linearGradient
       inkscape:collect="always"
       xlink:href="#linearGradient33785"
       id="linearGradient33779"
       x1="26.105724"
       y1="19.059975"
       x2="27.596752"
       y2="9.6645498"
       gradientUnits="userSpaceOnUse" />
    <linearGradient
       inkscape:collect="always"
       xlink:href="#linearGradient46063"
       id="linearGradient46065"
       x1="19.384081"
       y1="16.537014"
       x2="34.191818"
       y2="18.824152"
       gradientUnits="userSpaceOnUse" />
  </defs>
  <g
     inkscape:groupmode="layer"
     id="layer6"
     inkscape:label="palette"
     sodipodi:insensitive="true">
    <rect
       style="fill:#ff4747;fill-opacity:1;stroke-width:0.264583"
       id="rect12478"
       width="1.8378819"
       height="1.8378819"
       x="17.842072"
       y="0.86021888" />
    <rect
       style="fill:#ff7847;fill-opacity:1;stroke-width:0.264583"
       id="rect12478-6"
       width="1.8378819"
       height="1.8378819"
       x="20.20912"
       y="0.86021864" />
    <rect
       style="fill:#91ff47;fill-opacity:1;stroke-width:0.264583"
       id="rect12478-6-2"
       width="1.8378819"
       height="1.8378819"
       x="17.842072"
       y="3.2272673" />
    <rect
       style="fill:#47ff68;fill-opacity:1;stroke-width:0.264583"
       id="rect12478-6-2-6"
       width="1.8378819"
       height="1.8378819"
       x="20.20912"
       y="3.2272673" />
    <rect
       style="fill:#4799ff;fill-opacity:1;stroke-width:0.264583"
       id="rect12478-6-2-1"
       width="1.8378819"
       height="1.8378819"
       x="17.842072"
       y="5.594316" />
    <rect
       style="fill:#47f7ff;fill-opacity:1;stroke-width:0.264583"
       id="rect12478-6-2-6-8"
       width="1.8378819"
       height="1.8378819"
       x="20.20912"
       y="5.594316" />
    <rect
       style="fill:#808080;fill-opacity:1;stroke-width:0.264583"
       id="rect12478-6-2-7"
       width="1.8378819"
       height="1.8378819"
       x="17.842072"
       y="7.9613643" />
    <rect
       style="fill:#b3b3b3;fill-opacity:1;stroke-width:0.264583"
       id="rect12478-6-2-6-9"
       width="1.8378819"
       height="1.8378819"
       x="20.20912"
       y="7.9613643" />
  </g>
  <g
     inkscape:groupmode="layer"
     id="layer3"
     inkscape:label="progress"
     style="display:none">
    <g
       inkscape:groupmode="layer"
       id="layer5"
       inkscape:label="wallpaper"
       sodipodi:insensitive="true">
      <g
         id="g50210"
         transform="translate(-18.702238,-6.1119695)">
        <rect
           style="fill:url(#linearGradient33779);fill-opacity:1;stroke-width:0.25621"
           id="rect10518"
           width="15.679909"
           height="9.0150604"
           x="19.328951"
           y="10.071106" />
        <path
           id="rect10518-6-0"
           style="fill:#91ff47;fill-opacity:1;stroke-width:0.142142"
           d="m 19.328949,18.067243 c 5.226637,-0.292631 13.570478,-2.03099 15.67991,-0.877894 v 1.896817 h -15.67991 z"
           sodipodi:nodetypes="ccccc" />
        <path
           id="rect10518-6"
           style="fill:url(#linearGradient46065);fill-opacity:1;stroke-width:0.156067"
           d="m 19.328951,15.741151 c 5.267532,0.283137 10.475425,1.439516 15.679908,2.645832 v 0.699183 H 19.328951 Z"
           sodipodi:nodetypes="ccccc" />
      </g>
    </g>
    <g
       inkscape:groupmode="layer"
       id="layer7"
       inkscape:label="arrow"
       sodipodi:insensitive="true" />
    <g
       inkscape:groupmode="layer"
       id="layer4"
       inkscape:label="monitor"
       style="display:none"
       sodipodi:insensitive="true">
      <path
         id="rect7197-3"
         style="display:inline;fill:url(#linearGradient9037);fill-opacity:1;stroke-width:0.933162"
         d="m 4,12 c -2.2159999,0 -4,1.784 -4,4 v 32 c 0,2.216 1.7840001,4 4,4 h 20 v 8 h -6 c -1.108,0 -2,0.892 -2,2 0,1.108 0.892,2 2,2 h 28 c 1.108,0 2,-0.892 2,-2 0,-1.108 -0.892,-2 -2,-2 h -6 v -8 h 20 c 2.216,0 4,-1.784 4,-4 V 16 c 0,-2.216 -1.784,-4 -4,-4 z m -0.5,4 h 57 v 32 h -57 z"
         transform="scale(0.26458333)" />
      <rect
         style="fill:#000000;fill-opacity:0.273773;stroke-width:0.216031"
         id="rect7197"
         width="4.2333331"
         x="6.3499994"
         y="13.758333"
         height="2.1166666" />
    </g>
  </g>
  <g
     inkscape:groupmode="layer"
     id="layer2"
     inkscape:label="error"
     style="display:none"
     sodipodi:insensitive="true">
    <path
       id="path6097"
       style="fill:url(#linearGradient24397);fill-opacity:1;stroke-width:3.21446"
       d="M 32,0 A 31.999998,31.999998 0 0 0 0,32 31.999998,31.999998 0 0 0 32,64 31.999998,31.999998 0 0 0 64,32 31.999998,31.999998 0 0 0 32,0 Z M 17.857422,13.853516 c 1.022476,0 2.044651,0.392307 2.828125,1.175781 L 32,26.34375 43.314453,15.029297 c 1.566951,-1.566949 4.089303,-1.566949 5.65625,0 1.566951,1.566949 1.566951,4.089301 0,5.65625 L 37.65625,32 48.970703,43.314453 c 1.566951,1.566947 1.566951,4.089303 0,5.65625 -1.566947,1.566951 -4.089299,1.566951 -5.65625,0 L 32,37.65625 20.685547,48.970703 c -1.566948,1.566951 -4.089301,1.566951 -5.65625,0 -1.566949,-1.566947 -1.566949,-4.089303 0,-5.65625 L 26.34375,32 15.029297,20.685547 c -1.566948,-1.566948 -1.566949,-4.089301 0,-5.65625 0.783474,-0.783474 1.805649,-1.175781 2.828125,-1.175781 z"
       transform="scale(0.26458333)" />
  </g>
  <g
     inkscape:label="success"
     inkscape:groupmode="layer"
     id="layer1"
     style="display:inline"
     sodipodi:insensitive="true">
    <path
       id="path4975"
       style="display:inline;fill:url(#linearGradient16255);fill-opacity:1;stroke-width:2.05227"
       d="M 32,0 A 31.999998,31.999998 0 0 0 0,32 31.999998,31.999998 0 0 0 32,64 31.999998,31.999998 0 0 0 64,32 31.999998,31.999998 0 0 0 32,0 Z m 22.626953,17.855469 c 1.022479,0 2.046605,0.390354 2.830078,1.173828 1.566947,1.566949 1.566947,4.091255 0,5.658203 L 29.171875,52.970703 c -1.566947,1.566947 -4.089303,1.566947 -5.65625,0 L 6.5429688,36 c -1.5669468,-1.56695 -1.5669468,-4.089301 0,-5.65625 1.5669505,-1.566948 4.0912522,-1.566948 5.6582032,0 L 26.341797,44.486328 51.798828,19.029297 c 0.783474,-0.783474 1.80565,-1.173828 2.828125,-1.173828 z"
       transform="scale(0.26458333)" />
  </g>
</svg>
